<svg width="61" height="55" viewBox="0 0 61 55" fill="none" xmlns="http://www.w3.org/2000/svg">
<path d="M21.1596 35.6253C19.4157 30.5393 15.5325 26.4816 10.6385 24.6875C15.5321 22.8932 19.4155 18.8355 21.1595 13.7497C22.9033 18.8357 26.7864 22.8935 31.68 24.6876C26.7866 26.4818 22.9036 30.5396 21.1596 35.6253ZM39.1906 15.2537C41.9056 14.0242 44.086 11.7505 45.2799 8.93718C46.4738 11.7505 48.6542 14.0242 51.3692 15.2537C48.6542 16.4832 46.4738 18.7569 45.2799 21.5703C44.086 18.7569 41.9056 16.4832 39.1906 15.2537ZM35.8591 41.4014C37.9795 40.3586 39.6958 38.5706 40.7081 36.3763C41.7205 38.5708 43.437 40.3586 45.5572 41.4014C43.4368 42.4442 41.7205 44.2322 40.7082 46.4266C39.6958 44.232 37.9793 42.4442 35.8591 41.4014Z" stroke="white" stroke-width="2" stroke-linecap="round" stroke-linejoin="round"/>
</svg>
